<svg height="512pt" viewBox="0 0 512 512.0991" width="512pt" xmlns="http://www.w3.org/2000/svg"><path d="m128.050781 409.699219h93.867188v93.867187h-76.796875c-9.425782 0-17.070313-7.640625-17.070313-17.066406zm0 0" fill="#8b685a"/><path d="m221.917969 409.699219h93.867187v93.867187h-93.867187zm0 0" fill="#8b685a"/><path d="m315.785156 409.699219h93.867188v93.867187h-93.867188zm0 0" fill="#8b685a"/><path d="m503.519531 409.699219v76.800781c-.027343 9.414062-7.652343 17.039062-17.066406 17.066406h-76.800781v-93.867187zm0 0" fill="#61443c"/><path d="m221.917969 315.832031h93.867187v93.867188h-93.867187zm0 0" fill="#8b685a"/><path d="m315.785156 315.832031h93.867188v93.867188h-93.867188zm0 0" fill="#8b685a"/><path d="m409.652344 315.832031h93.867187v93.867188h-93.867187zm0 0" fill="#61443c"/><path d="m315.785156 221.964844h93.867188v93.867187h-93.867188zm0 0" fill="#8b685a"/><path d="m409.652344 221.964844h93.867187v93.867187h-93.867187zm0 0" fill="#61443c"/><path d="m409.652344 128.097656h93.867187v93.867188h-93.867187zm0 0" fill="#61443c"/><g fill="#8b685a"><path d="m477.917969 409.699219v76.800781c-.027344 9.414062-7.652344 17.039062-17.066407 17.066406h-51.199218v-93.867187zm0 0"/><path d="m409.652344 315.832031h68.265625v93.867188h-68.265625zm0 0"/><path d="m409.652344 221.964844h68.265625v93.867187h-68.265625zm0 0"/><path d="m409.652344 128.097656h68.265625v93.867188h-68.265625zm0 0"/></g><path d="m128.050781 375.566406h93.867188v34.132813h-93.867188c-9.421875 0-17.066406-7.640625-17.066406-17.066407 0-9.425781 7.644531-17.066406 17.066406-17.066406zm0 0" fill="#9aca5c"/><path d="m221.917969 281.699219h93.867187v34.132812h-93.867187c-9.425781 0-17.066407-7.640625-17.066407-17.066406s7.640626-17.066406 17.066407-17.066406zm0 0" fill="#9aca5c"/><path d="m315.785156 187.832031h93.867188v34.132813h-93.867188c-9.425781 0-17.066406-7.640625-17.066406-17.066406 0-9.425782 7.640625-17.066407 17.066406-17.066407zm0 0" fill="#9aca5c"/><path d="m503.519531 102.5v25.597656h-93.867187c-9.414063-.027344-17.039063-7.652344-17.066406-17.066406.070312-9.394531 7.671874-16.996094 17.066406-17.066406h85.332031c4.714844 0 8.535156 3.820312 8.535156 8.535156zm0 0" fill="#66993e"/><path d="m477.917969 102.5v25.597656h-68.265625c-9.414063-.027344-17.039063-7.652344-17.066406-17.066406.070312-9.394531 7.671874-16.996094 17.066406-17.066406h59.734375c4.710937 0 8.53125 3.820312 8.53125 8.535156zm0 0" fill="#9aca5c"/><path d="m194.605469 69.242188 24.136719 24.136718-181.019532 181.019532c-6.664062 6.664062-17.472656 6.664062-24.136718 0-6.664063-6.664063-6.664063-17.472657 0-24.136719zm0 0" fill="#ff6e2c"/><path d="m194.613281 69.21875s-46.636719-47.214844-97.835937-55.746094c0 0 81.066406-21.335937 128 25.597656l24.132812 24.175782c46.933594 46.933594 25.601563 128 25.601563 128-8.535157-51.199219-55.773438-97.828125-55.773438-97.828125zm0 0" fill="#728f9c"/><path d="m221.917969 512.097656h-76.796875c-14.140625 0-25.601563-11.460937-25.601563-25.597656v-76.800781c0-4.714844 3.820313-8.535157 8.53125-8.535157h93.867188c4.714843 0 8.535156 3.820313 8.535156 8.535157v93.867187c0 4.710938-3.820313 8.53125-8.535156 8.53125zm-85.332031-93.863281v68.265625c0 4.710938 3.820312 8.53125 8.535156 8.53125h68.265625v-76.796875zm0 0"/><path d="m315.785156 512.097656h-93.867187c-4.710938 0-8.53125-3.820312-8.53125-8.53125v-93.867187c0-4.714844 3.820312-8.535157 8.53125-8.535157h93.867187c4.714844 0 8.535156 3.820313 8.535156 8.535157v93.867187c0 4.710938-3.820312 8.53125-8.535156 8.53125zm-85.332031-17.066406h76.800781v-76.796875h-76.800781zm0 0"/><path d="m409.652344 512.097656h-93.867188c-4.710937 0-8.53125-3.820312-8.53125-8.53125v-93.867187c0-4.714844 3.820313-8.535157 8.53125-8.535157h93.867188c4.714844 0 8.535156 3.820313 8.535156 8.535157v93.867187c0 4.710938-3.820312 8.53125-8.535156 8.53125zm-85.332032-17.066406h76.800782v-76.796875h-76.800782zm0 0"/><path d="m486.453125 512.097656h-76.800781c-4.710938 0-8.53125-3.820312-8.53125-8.53125v-93.867187c0-4.714844 3.820312-8.535157 8.53125-8.535157h93.867187c4.710938 0 8.53125 3.820313 8.53125 8.535157v76.800781c0 14.136719-11.460937 25.597656-25.597656 25.597656zm-68.265625-17.066406h68.265625c4.710937 0 8.53125-3.820312 8.53125-8.53125v-68.265625h-76.796875zm0 0"/><path d="m315.785156 418.234375h-93.867187c-4.710938 0-8.53125-3.824219-8.53125-8.535156v-93.867188c0-4.710937 3.820312-8.53125 8.53125-8.53125h93.867187c4.714844 0 8.535156 3.820313 8.535156 8.53125v93.867188c0 4.710937-3.820312 8.535156-8.535156 8.535156zm-85.332031-17.070313h76.800781v-76.796874h-76.800781zm0 0"/><path d="m409.652344 418.234375h-93.867188c-4.710937 0-8.53125-3.824219-8.53125-8.535156v-93.867188c0-4.710937 3.820313-8.53125 8.53125-8.53125h93.867188c4.714844 0 8.535156 3.820313 8.535156 8.53125v93.867188c0 4.710937-3.820312 8.535156-8.535156 8.535156zm-85.332032-17.070313h76.800782v-76.796874h-76.800782zm0 0"/><path d="m503.519531 418.234375h-93.867187c-4.710938 0-8.53125-3.824219-8.53125-8.535156v-93.867188c0-4.710937 3.820312-8.53125 8.53125-8.53125h93.867187c4.710938 0 8.53125 3.820313 8.53125 8.53125v93.867188c0 4.710937-3.820312 8.535156-8.53125 8.535156zm-85.332031-17.070313h76.796875v-76.796874h-76.796875zm0 0"/><path d="m409.652344 324.367188h-93.867188c-4.710937 0-8.53125-3.820313-8.53125-8.535157v-93.867187c0-4.710938 3.820313-8.53125 8.53125-8.53125h93.867188c4.714844 0 8.535156 3.820312 8.535156 8.53125v93.867187c0 4.714844-3.820312 8.535157-8.535156 8.535157zm-85.332032-17.066407h76.800782v-76.800781h-76.800782zm0 0"/><path d="m503.519531 324.367188h-93.867187c-4.710938 0-8.53125-3.820313-8.53125-8.535157v-93.867187c0-4.710938 3.820312-8.53125 8.53125-8.53125h93.867187c4.710938 0 8.53125 3.820312 8.53125 8.53125v93.867187c0 4.714844-3.820312 8.535157-8.53125 8.535157zm-85.332031-17.066407h76.796875v-76.800781h-76.796875zm0 0"/><path d="m503.519531 230.5h-93.867187c-4.710938 0-8.53125-3.820312-8.53125-8.535156v-93.867188c0-4.710937 3.820312-8.53125 8.53125-8.53125h93.867187c4.710938 0 8.53125 3.820313 8.53125 8.53125v93.867188c0 4.714844-3.820312 8.535156-8.53125 8.535156zm-85.332031-17.066406h76.796875v-76.800782h-76.796875zm0 0"/><path d="m213.386719 418.234375h-85.335938c-14.136719 0-25.597656-11.464844-25.597656-25.601563 0-14.140624 11.460937-25.601562 25.597656-25.601562h85.335938c4.710937 0 8.53125 3.820312 8.53125 8.535156v34.132813c0 4.710937-3.820313 8.535156-8.53125 8.535156zm-85.335938-34.136719c-4.710937 0-8.53125 3.820313-8.53125 8.535156 0 4.710938 3.820313 8.53125 8.53125 8.53125h76.800781v-17.066406zm0 0"/><path d="m315.785156 324.367188h-85.332031c-14.140625 0-25.601563-11.464844-25.601563-25.601563s11.460938-25.601563 25.601563-25.601563h85.332031c4.714844 0 8.535156 3.820313 8.535156 8.535157v34.132812c0 4.714844-3.820312 8.535157-8.535156 8.535157zm-85.332031-34.132813c-4.714844 0-8.535156 3.820313-8.535156 8.53125 0 4.714844 3.820312 8.535156 8.535156 8.535156h76.800781v-17.066406zm0 0"/><path d="m409.652344 230.5h-85.332032c-14.140624 0-25.601562-11.460938-25.601562-25.601562 0-14.136719 11.460938-25.597657 25.601562-25.597657h85.332032c4.714844 0 8.535156 3.820313 8.535156 8.53125v34.132813c0 4.714844-3.820312 8.535156-8.535156 8.535156zm-85.332032-34.132812c-4.714843 0-8.535156 3.820312-8.535156 8.53125 0 4.714843 3.820313 8.535156 8.535156 8.535156h76.800782v-17.066406zm0 0"/><path d="m503.519531 136.632812h-85.332031c-14.140625 0-25.601562-11.460937-25.601562-25.601562 0-14.136719 11.460937-25.597656 25.601562-25.597656h85.332031c4.710938 0 8.53125 3.820312 8.53125 8.53125v34.132812c0 4.714844-3.820312 8.535156-8.53125 8.535156zm-85.332031-34.132812c-4.714844 0-8.535156 3.820312-8.535156 8.53125 0 4.714844 3.820312 8.535156 8.535156 8.535156h76.796875v-17.066406zm0 0"/><path d="m25.652344 287.910156c-6.785156.019532-13.300782-2.667968-18.097656-7.464844-4.804688-4.800781-7.5039068-11.316406-7.5039068-18.109374 0-6.792969 2.6992188-13.304688 7.5039068-18.105469l181.015624-180.984375c3.332032-3.332032 8.734376-3.332032 12.066407 0l24.132812 24.132812c3.332031 3.332032 3.332031 8.734375 0 12.066406l-181.019531 180.992188c-4.796875 4.796875-11.3125 7.484375-18.097656 7.472656zm-6.03125-19.539062c3.332031 3.332031 8.730468 3.332031 12.066406 0l174.984375-174.992188-12.058594-12.066406-174.992187 174.972656c-1.605469 1.601563-2.507813 3.777344-2.507813 6.042969s.902344 4.441406 2.507813 6.042969zm0 0"/><path d="m274.511719 199.777344h-.394531c-4.019532-.183594-7.359376-3.15625-8.019532-7.125-7.972656-47.785156-52.90625-92.722656-53.359375-93.164063l-24.167969-24.210937c-.453124-.460938-45.371093-45.398438-93.15625-53.359375-4.007812-.617188-7.023437-3.96875-7.21875-8.019531-.195312-4.046876 2.480469-7.675782 6.40625-8.679688 3.515626-.9375 86.359376-22.015625 136.210938 27.808594l24.128906 24.144531c49.828125 49.824219 28.742188 132.699219 27.820313 136.207031-.972657 3.765625-4.363281 6.394532-8.25 6.398438zm-73.859375-136.53125 24.117187 24.125c18.617188 19.105468 34.117188 41.019531 45.933594 64.9375.53125-25.667969-4.207031-59.425782-27.824219-83.039063l-24.132812-24.148437c-23.699219-23.6875-57.234375-28.484375-83.140625-27.894532 23.960937 11.832032 45.914062 27.363282 65.046875 46.019532zm0 0"/><path d="m315.785156 145.164062c-4.710937 0-8.53125-3.820312-8.53125-8.53125v-17.066406c0-4.714844 3.820313-8.535156 8.53125-8.535156 4.714844 0 8.535156 3.820312 8.535156 8.535156v17.066406c0 4.710938-3.820312 8.53125-8.535156 8.53125zm0 0"/><path d="m341.386719 162.234375c-3.453125-.003906-6.5625-2.082031-7.882813-5.269531-1.320312-3.1875-.589844-6.859375 1.847656-9.296875l17.066407-17.070313c3.351562-3.230468 8.671875-3.1875 11.964843.105469 3.289063 3.292969 3.335938 8.613281.101563 11.960937l-17.066406 17.066407c-1.597657 1.601562-3.769531 2.5-6.03125 2.503906zm0 0"/><path d="m247.519531 239.03125c-3.964843.007812-7.410156-2.710938-8.320312-6.570312-.914063-3.855469.949219-7.832032 4.496093-9.597657l17.066407-8.535156c4.21875-2.105469 9.347656-.394531 11.453125 3.824219 2.105468 4.21875.394531 9.34375-3.824219 11.449218l-17.066406 8.535157c-1.179688.589843-2.484375.894531-3.804688.894531zm0 0"/></svg>